<?xml version="1.0" encoding="utf-8"?>
<!-- Generator: Adobe Illustrator 24.0.1, SVG Export Plug-In . SVG Version: 6.00 Build 0)  -->
<svg version="1.1" id="Слой_1" xmlns="http://www.w3.org/2000/svg" xmlns:xlink="http://www.w3.org/1999/xlink" x="0px" y="0px"
	 viewBox="0 0 511 512" style="enable-background:new 0 0 511 512;" xml:space="preserve">
<style type="text/css">
	.st0{fill-rule:evenodd;clip-rule:evenodd;fill:#ffffff;}
</style>
<path class="st0" d="M256.4,20.1c-14.3,0-27.4,3-37.9,8.1c-9.9,4.8-17.3,11.4-20.8,18.9l-13.3,36.7c12.6-7.3,27.2-12.2,41.4-14.9
	c9.8-1.9,20-2.9,30.6-2.9c10.6,0,20.8,1,30.6,2.9c14.3,2.7,28.8,7.6,41.4,14.9l-13.3-36.7c-3.6-7.5-11-14-20.8-18.9
	C283.8,23.1,270.7,20.1,256.4,20.1z M161.3,331.6c5.6,0,10.1,4.5,10.1,10.1c0,5.6-4.5,10.1-10.1,10.1c-5.6,0-10.1-4.5-10.1-10.1
	C151.2,336.1,155.8,331.6,161.3,331.6z M177.1,303.9c-3.5,4.6-2.6,11.3,2,14.7c4.6,3.5,11.2,2.6,14.7-2.1h0
	c38.1-50.6,76.6-104.8,96.8-144c11.5-22.2,19.3-38.7,24.6-51.6c2.8-6.7,4.9-12.6,6.5-17.7c4.2,2.7,8,5.6,11.3,8.8
	c5.3,5,9.2,10.6,11.5,16.5c0.9,4.6,5.9,38-19.2,87.9c-42.7,84.7-113,193.9-173.5,267.8l-35.4-67.3c8.3-10.7,18.1-23.1,28.7-36.7
	c3.4-4.4,2.5-10.7-1.9-14.1s-10.8-2.6-14.2,1.8c-19.1,25-32.2,41.7-32.3,41.8c-2.5,3.2-2.8,7.4-1,10.8l45.3,86.2
	c2.6,4.9,8.6,6.7,13.5,4.2c1.3-0.7,2.4-1.6,3.2-2.6c26.8-30.8,60-77.6,91.3-125.4c2.5-3.8,4.9-7.5,7.4-11.3
	c16.4,25.3,33.7,50.9,50.4,74.2c17.1,23.9,33.7,45.6,48.4,62.5c0.9,1,1.9,2,3.2,2.6c4.9,2.6,10.9,0.7,13.5-4.2l45.4-86.2
	c1.8-3.4,1.5-7.6-1-10.8c-0.1-0.2-52.4-66.8-101-133.5c11.9-20.4,21.7-38,28.1-50.8c30.4-60.2,20.9-101.5,20.9-101.7
	c-3.7-17.1-22.7-69.4-30.8-85C327.7,27,317,17.1,303,10.3C289.9,3.8,273.7,0,256.4,0s-33.5,3.8-46.7,10.3c-14.2,6.9-25,17-30.4,28.9
	c-8.4,18.3-26.5,65.8-30.6,84.6c0,0.1-9.5,41.5,20.9,101.7c3.2,6.3,7.8,14.8,13.1,24.4c4.9,8.8,10,17.8,15,26.4
	C190.8,285.4,183.9,294.8,177.1,303.9z M209.1,94.2c1.4,5.2,3.5,11.4,6.7,19.1c5,12.2,12.7,28.2,23.9,50c2.4,4.6,5.8,10.5,9.8,17.1
	c2.2,3.6,4.5,7.3,6.8,11c6.9-10.9,12.6-20.4,16.6-28.1c11.3-21.8,18.9-37.8,23.9-50c3.2-7.7,5.4-13.9,6.8-19.1
	c-6.3-2.4-13.2-4.3-20.4-5.7c-8.4-1.6-17.4-2.5-26.8-2.5c-9.4,0-18.4,0.9-26.8,2.5C222.2,89.9,215.4,91.8,209.1,94.2z M244.4,209.7
	c-4.3-6.6-8.4-13.1-11.9-18.8c-4.3-7-7.9-13.3-10.5-18.4c-11.5-22.2-19.3-38.7-24.6-51.6c-2.8-6.7-4.9-12.6-6.5-17.7
	c-4.2,2.7-8,5.6-11.3,8.8c-5.3,5-9.2,10.6-11.5,16.5c-0.8,4.6-5.9,38,19.3,87.9c3.2,6.3,7.6,14.5,12.7,23.7
	c3.1,5.5,6.6,11.7,10.4,18.3C222.6,241.3,234.3,224.8,244.4,209.7z M268.1,353.1c17.6,27.3,36.5,55.4,54.8,81.1
	c13.2,18.5,26.1,35.6,38,50l35.4-67.3c-12.7-16.3-53.4-68.9-92.4-121.9C293.1,313.2,281,332.9,268.1,353.1z"/>
</svg>
